<svg width="14" height="14" viewBox="0 0 14 14" fill="none" xmlns="http://www.w3.org/2000/svg">
<path d="M8.87969 9.35781L9.55703 8.68047L7.57812 6.70156V3.9125H6.62187V7.1L8.87969 9.35781ZM7.1 12.2C6.39716 12.2 5.73668 12.0672 5.11857 11.8016C4.50046 11.5359 3.95898 11.1707 3.49414 10.7059C3.0293 10.241 2.66406 9.69888 2.39844 9.07944C2.13281 8.46 2 7.79815 2 7.09389C2 6.38963 2.13281 5.7276 2.39844 5.10781C2.66406 4.48802 3.0293 3.94792 3.49414 3.4875C3.95898 3.02708 4.50112 2.66406 5.12056 2.39844C5.74 2.13281 6.40185 2 7.10611 2C7.81037 2 8.47244 2.13387 9.09232 2.40162C9.71211 2.66937 10.2513 3.03275 10.7098 3.49175C11.1683 3.95075 11.5313 4.4905 11.7988 5.111C12.0663 5.7315 12.2 6.3945 12.2 7.1C12.2 7.80284 12.0672 8.46332 11.8016 9.08143C11.5359 9.69954 11.1729 10.241 10.7125 10.7059C10.2521 11.1707 9.7114 11.5359 9.09046 11.8016C8.46952 12.0672 7.80603 12.2 7.1 12.2ZM7.10638 11.2437C8.25272 11.2437 9.2289 10.8387 10.0349 10.0285C10.8408 9.21836 11.2437 8.24006 11.2437 7.09363C11.2437 5.94728 10.8408 4.9711 10.0349 4.16511C9.2289 3.3592 8.25272 2.95625 7.10638 2.95625C5.95994 2.95625 4.98164 3.3592 4.17148 4.16511C3.36133 4.9711 2.95625 5.94728 2.95625 7.09363C2.95625 8.24006 3.36133 9.21836 4.17148 10.0285C4.98164 10.8387 5.95994 11.2437 7.10638 11.2437Z" fill="white"/>
</svg>
