<svg width="34" height="34" viewBox="0 0 34 34" fill="none" xmlns="http://www.w3.org/2000/svg">
<rect width="34" height="34" rx="10" fill="#FF6A39"/>
<g clip-path="url(#clip0_1396_971)">
<path d="M12.8371 12.8262C13.0024 13.2945 13.3088 13.7 13.7142 13.9869C14.1196 14.2737 14.604 14.4277 15.1006 14.4277C15.5972 14.4277 16.0816 14.2737 16.487 13.9869C16.8924 13.7 17.1988 13.2945 17.364 12.8262H25.498V11.2266H17.364C17.1988 10.7583 16.8924 10.3527 16.487 10.0659C16.0816 9.77904 15.5972 9.625 15.1006 9.625C14.604 9.625 14.1196 9.77904 13.7142 10.0659C13.3088 10.3527 13.0024 10.7583 12.8371 11.2266H9.50195V12.8262H12.8371ZM17.636 18.4248C17.8012 18.8931 18.1076 19.2986 18.513 19.5855C18.9184 19.8723 19.4028 20.0264 19.8994 20.0264C20.396 20.0264 20.8804 19.8723 21.2858 19.5855C21.6912 19.2986 21.9976 18.8931 22.1629 18.4248H25.498V16.8252H22.1629C21.9976 16.3569 21.6912 15.9514 21.2858 15.6645C20.8804 15.3777 20.396 15.2236 19.8994 15.2236C19.4028 15.2236 18.9184 15.3777 18.513 15.6645C18.1076 15.9514 17.8012 16.3569 17.636 16.8252H9.50195V18.4248H17.636ZM12.8371 24.0234C13.0024 24.4917 13.3088 24.8973 13.7142 25.1841C14.1196 25.471 14.604 25.625 15.1006 25.625C15.5972 25.625 16.0816 25.471 16.487 25.1841C16.8924 24.8973 17.1988 24.4917 17.364 24.0234H25.498V22.4238H17.364C17.1988 21.9555 16.8924 21.55 16.487 21.2631C16.0816 20.9763 15.5972 20.8223 15.1006 20.8223C14.604 20.8223 14.1196 20.9763 13.7142 21.2631C13.3088 21.55 13.0024 21.9555 12.8371 22.4238H9.50195V24.0234H12.8371ZM15.1006 22.4238C15.3127 22.4238 15.5161 22.5081 15.6661 22.6581C15.8161 22.8081 15.9004 23.0115 15.9004 23.2236C15.9004 23.4357 15.8161 23.6392 15.6661 23.7892C15.5161 23.9392 15.3127 24.0234 15.1006 24.0234C14.8885 24.0234 14.685 23.9392 14.535 23.7892C14.385 23.6392 14.3008 23.4357 14.3008 23.2236C14.3008 23.0115 14.385 22.8081 14.535 22.6581C14.685 22.5081 14.8885 22.4238 15.1006 22.4238ZM19.8994 16.8252C20.1115 16.8252 20.315 16.9095 20.465 17.0595C20.6149 17.2094 20.6992 17.4129 20.6992 17.625C20.6992 17.8371 20.6149 18.0406 20.465 18.1905C20.315 18.3405 20.1115 18.4248 19.8994 18.4248C19.6873 18.4248 19.4839 18.3405 19.3339 18.1905C19.1839 18.0406 19.0996 17.8371 19.0996 17.625C19.0996 17.4129 19.1839 17.2094 19.3339 17.0595C19.4839 16.9095 19.6873 16.8252 19.8994 16.8252ZM15.1006 11.2266C15.3127 11.2266 15.5161 11.3108 15.6661 11.4608C15.8161 11.6108 15.9004 11.8143 15.9004 12.0264C15.9004 12.2385 15.8161 12.4419 15.6661 12.5919C15.5161 12.7419 15.3127 12.8262 15.1006 12.8262C14.8885 12.8262 14.685 12.7419 14.535 12.5919C14.385 12.4419 14.3008 12.2385 14.3008 12.0264C14.3008 11.8143 14.385 11.6108 14.535 11.4608C14.685 11.3108 14.8885 11.2266 15.1006 11.2266Z" fill="white"/>
</g>
<defs>
<clipPath id="clip0_1396_971">
<rect width="21" height="21" fill="white" transform="matrix(1 0 0 -1 6 26)"/>
</clipPath>
</defs>
</svg>
