<svg width="38" height="34" viewBox="0 0 38 34" fill="none" xmlns="http://www.w3.org/2000/svg">
<rect width="34" height="34" rx="10" fill="#FF6A39"/>
<rect x="25" width="13" height="13" rx="6.5" fill="#009CDE"/>
<path d="M32.5275 10H31.2495V5.914H29.6655V4.951C29.8875 4.957 30.1005 4.942 30.3045 4.906C30.5145 4.864 30.7005 4.795 30.8625 4.699C31.0305 4.597 31.1715 4.465 31.2855 4.303C31.3995 4.141 31.4745 3.94 31.5105 3.7H32.5275V10Z" fill="white"/>
<path d="M15.3006 8.97775C15.4376 8.63924 15.6725 8.34934 15.9753 8.14521C16.2781 7.94108 16.635 7.83203 17.0001 7.83203C17.3653 7.83203 17.7222 7.94108 18.025 8.14521C18.3277 8.34934 18.5627 8.63924 18.6996 8.97775C20.0554 9.35013 21.2513 10.1575 22.1036 11.2757C22.9558 12.3939 23.4172 13.7611 23.4168 15.1671V19.4727L25.0961 21.9917C25.1882 22.1297 25.2411 22.2902 25.2492 22.4559C25.2572 22.6217 25.2201 22.7865 25.1419 22.9329C25.0636 23.0792 24.947 23.2015 24.8046 23.2868C24.6623 23.3721 24.4994 23.4171 24.3335 23.4171H20.1764C20.066 24.1808 19.6842 24.8791 19.1009 25.3842C18.5175 25.8893 17.7718 26.1673 17.0001 26.1673C16.2285 26.1673 15.4827 25.8893 14.8994 25.3842C14.3161 24.8791 13.9343 24.1808 13.8239 23.4171H9.6668C9.50085 23.4171 9.338 23.3721 9.19563 23.2868C9.05326 23.2015 8.93671 23.0792 8.85842 22.9329C8.78013 22.7865 8.74303 22.6217 8.75108 22.4559C8.75913 22.2902 8.81203 22.1297 8.90414 21.9917L10.5835 19.4727V15.1671C10.5835 12.2118 12.5818 9.72209 15.3006 8.97775ZM15.704 23.4171C15.7986 23.6853 15.9742 23.9176 16.2064 24.082C16.4386 24.2463 16.7161 24.3345 17.0006 24.3345C17.2851 24.3345 17.5625 24.2463 17.7948 24.082C18.027 23.9176 18.2025 23.6853 18.2972 23.4171H15.704ZM17.0001 10.5838C15.7846 10.5838 14.6188 11.0666 13.7592 11.9262C12.8997 12.7857 12.4168 13.9515 12.4168 15.1671V19.7504C12.4168 19.9315 12.3633 20.1085 12.2628 20.2592L11.3801 21.5838H22.6193L21.7366 20.2592C21.6364 20.1084 21.5832 19.9314 21.5835 19.7504V15.1671C21.5835 13.9515 21.1006 12.7857 20.241 11.9262C19.3815 11.0666 18.2157 10.5838 17.0001 10.5838Z" fill="white"/>
</svg>
