<svg width="21" height="17" viewBox="0 0 21 17" fill="none" xmlns="http://www.w3.org/2000/svg">
<path d="M20.5 2.5V14.5C20.5 15.05 20.3042 15.5208 19.9125 15.9125C19.5208 16.3042 19.05 16.5 18.5 16.5H2.5C1.95 16.5 1.47917 16.3042 1.0875 15.9125C0.695833 15.5208 0.5 15.05 0.5 14.5V2.5C0.5 1.95 0.695833 1.47917 1.0875 1.0875C1.47917 0.695833 1.95 0.5 2.5 0.5H18.5C19.05 0.5 19.5208 0.695833 19.9125 1.0875C20.3042 1.47917 20.5 1.95 20.5 2.5ZM2.5 4.5H18.5V2.5H2.5V4.5ZM2.5 8.5V14.5H18.5V8.5H2.5Z" fill="#FF6A39"/>
</svg>
