<svg width="12" height="10" viewBox="0 0 17 21" fill="none" xmlns="http://www.w3.org/2000/svg">
<path d="M8.5 10.5C9.05 10.5 9.52083 10.3042 9.9125 9.9125C10.3042 9.52083 10.5 9.05 10.5 8.5C10.5 7.95 10.3042 7.47917 9.9125 7.0875C9.52083 6.69583 9.05 6.5 8.5 6.5C7.95 6.5 7.47917 6.69583 7.0875 7.0875C6.69583 7.47917 6.5 7.95 6.5 8.5C6.5 9.05 6.69583 9.52083 7.0875 9.9125C7.47917 10.3042 7.95 10.5 8.5 10.5ZM8.5 17.85C10.5333 15.9833 12.0417 14.2875 13.025 12.7625C14.0083 11.2375 14.5 9.88333 14.5 8.7C14.5 6.88333 13.9208 5.39583 12.7625 4.2375C11.6042 3.07917 10.1833 2.5 8.5 2.5C6.81667 2.5 5.39583 3.07917 4.2375 4.2375C3.07917 5.39583 2.5 6.88333 2.5 8.7C2.5 9.88333 2.99167 11.2375 3.975 12.7625C4.95833 14.2875 6.46667 15.9833 8.5 17.85ZM8.5 20.5C5.81667 18.2167 3.8125 16.0958 2.4875 14.1375C1.1625 12.1792 0.5 10.3667 0.5 8.7C0.5 6.2 1.30417 4.20833 2.9125 2.725C4.52083 1.24167 6.38333 0.5 8.5 0.5C10.6167 0.5 12.4792 1.24167 14.0875 2.725C15.6958 4.20833 16.5 6.2 16.5 8.7C16.5 10.3667 15.8375 12.1792 14.5125 14.1375C13.1875 16.0958 11.1833 18.2167 8.5 20.5Z" fill="#FF6A39"/>
</svg>
